<svg width="156" height="32" viewBox="0 0 156 32" fill="none" xmlns="http://www.w3.org/2000/svg">
<path d="M11.116 24L5.852 17.392V24H1.932V3.28H5.852V15.068L11.06 8.488H16.156L9.324 16.272L16.212 24H11.116ZM18.3956 16.188C18.3956 14.62 18.7036 13.2293 19.3196 12.016C19.9542 10.8027 20.8036 9.86933 21.8676 9.216C22.9502 8.56267 24.1542 8.236 25.4796 8.236C26.6369 8.236 27.6449 8.46933 28.5036 8.936C29.3809 9.40267 30.0809 9.99067 30.6036 10.7V8.488H34.5516V24H30.6036V21.732C30.0996 22.46 29.3996 23.0667 28.5036 23.552C27.6262 24.0187 26.6089 24.252 25.4516 24.252C24.1449 24.252 22.9502 23.916 21.8676 23.244C20.8036 22.572 19.9542 21.6293 19.3196 20.416C18.7036 19.184 18.3956 17.7747 18.3956 16.188ZM30.6036 16.244C30.6036 15.292 30.4169 14.48 30.0436 13.808C29.6702 13.1173 29.1662 12.5947 28.5316 12.24C27.8969 11.8667 27.2156 11.68 26.4876 11.68C25.7596 11.68 25.0876 11.8573 24.4716 12.212C23.8556 12.5667 23.3516 13.0893 22.9596 13.78C22.5862 14.452 22.3996 15.2547 22.3996 16.188C22.3996 17.1213 22.5862 17.9427 22.9596 18.652C23.3516 19.3427 23.8556 19.8747 24.4716 20.248C25.1062 20.6213 25.7782 20.808 26.4876 20.808C27.2156 20.808 27.8969 20.6307 28.5316 20.276C29.1662 19.9027 29.6702 19.38 30.0436 18.708C30.4169 18.0173 30.6036 17.196 30.6036 16.244ZM43.4201 3.28V24H39.5001V3.28H43.4201ZM55.3011 24.252C53.8078 24.252 52.4638 23.9253 51.2691 23.272C50.0744 22.6 49.1318 21.6573 48.4411 20.444C47.7691 19.2307 47.4331 17.8307 47.4331 16.244C47.4331 14.6573 47.7784 13.2573 48.4691 12.044C49.1784 10.8307 50.1398 9.89733 51.3531 9.244C52.5664 8.572 53.9198 8.236 55.4131 8.236C56.9064 8.236 58.2598 8.572 59.4731 9.244C60.6864 9.89733 61.6384 10.8307 62.3291 12.044C63.0384 13.2573 63.3931 14.6573 63.3931 16.244C63.3931 17.8307 63.0291 19.2307 62.3011 20.444C61.5918 21.6573 60.6211 22.6 59.3891 23.272C58.1758 23.9253 56.8131 24.252 55.3011 24.252ZM55.3011 20.836C56.0104 20.836 56.6731 20.668 57.2891 20.332C57.9238 19.9773 58.4278 19.4547 58.8011 18.764C59.1744 18.0733 59.3611 17.2333 59.3611 16.244C59.3611 14.7693 58.9691 13.64 58.1851 12.856C57.4198 12.0533 56.4771 11.652 55.3571 11.652C54.2371 11.652 53.2944 12.0533 52.5291 12.856C51.7824 13.64 51.4091 14.7693 51.4091 16.244C51.4091 17.7187 51.7731 18.8573 52.5011 19.66C53.2478 20.444 54.1811 20.836 55.3011 20.836ZM71.9526 11.708V19.212C71.9526 19.7347 72.0739 20.1173 72.3166 20.36C72.5779 20.584 73.0072 20.696 73.6046 20.696H75.4246V24H72.9606C69.6566 24 68.0046 22.3947 68.0046 19.184V11.708H66.1566V8.488H68.0046V4.652H71.9526V8.488H75.4246V11.708H71.9526ZM151.779 24.196C151.07 24.196 150.482 23.9813 150.015 23.552C149.567 23.104 149.343 22.5533 149.343 21.9C149.343 21.2467 149.567 20.7053 150.015 20.276C150.482 19.828 151.07 19.604 151.779 19.604C152.47 19.604 153.039 19.828 153.487 20.276C153.935 20.7053 154.159 21.2467 154.159 21.9C154.159 22.5533 153.935 23.104 153.487 23.552C153.039 23.9813 152.47 24.196 151.779 24.196Z" fill="#3B3949"/>
<path d="M83.928 11.708V19.212C83.928 19.7347 84.0494 20.1173 84.292 20.36C84.5534 20.584 84.9827 20.696 85.58 20.696H87.4V24H84.936C81.632 24 79.98 22.3947 79.98 19.184V11.708H78.132V8.488H79.98V4.652H83.928V8.488H87.4V11.708H83.928ZM98.2275 24.252C96.7342 24.252 95.3902 23.9253 94.1955 23.272C93.0008 22.6 92.0582 21.6573 91.3675 20.444C90.6955 19.2307 90.3595 17.8307 90.3595 16.244C90.3595 14.6573 90.7048 13.2573 91.3955 12.044C92.1048 10.8307 93.0662 9.89733 94.2795 9.244C95.4928 8.572 96.8462 8.236 98.3395 8.236C99.8328 8.236 101.186 8.572 102.4 9.244C103.613 9.89733 104.565 10.8307 105.256 12.044C105.965 13.2573 106.32 14.6573 106.32 16.244C106.32 17.8307 105.956 19.2307 105.228 20.444C104.518 21.6573 103.548 22.6 102.316 23.272C101.102 23.9253 99.7395 24.252 98.2275 24.252ZM98.2275 20.836C98.9368 20.836 99.5995 20.668 100.216 20.332C100.85 19.9773 101.354 19.4547 101.728 18.764C102.101 18.0733 102.288 17.2333 102.288 16.244C102.288 14.7693 101.896 13.64 101.112 12.856C100.346 12.0533 99.4035 11.652 98.2835 11.652C97.1635 11.652 96.2208 12.0533 95.4555 12.856C94.7088 13.64 94.3355 14.7693 94.3355 16.244C94.3355 17.7187 94.6995 18.8573 95.4275 19.66C96.1742 20.444 97.1075 20.836 98.2275 20.836ZM118.911 8.264C120.759 8.264 122.252 8.852 123.391 10.028C124.53 11.1853 125.099 12.8093 125.099 14.9V24H121.179V15.432C121.179 14.2 120.871 13.2573 120.255 12.604C119.639 11.932 118.799 11.596 117.735 11.596C116.652 11.596 115.794 11.932 115.159 12.604C114.543 13.2573 114.235 14.2 114.235 15.432V24H110.315V8.488H114.235V10.42C114.758 9.748 115.42 9.22533 116.223 8.852C117.044 8.46 117.94 8.264 118.911 8.264ZM136.023 8.236C137.18 8.236 138.197 8.46933 139.075 8.936C139.952 9.384 140.643 9.972 141.147 10.7V8.488H145.095V24.112C145.095 25.5493 144.805 26.828 144.227 27.948C143.648 29.0867 142.78 29.9827 141.623 30.636C140.465 31.308 139.065 31.644 137.423 31.644C135.22 31.644 133.409 31.1307 131.991 30.104C130.591 29.0773 129.797 27.6773 129.611 25.904H133.503C133.708 26.6133 134.147 27.1733 134.819 27.584C135.509 28.0133 136.34 28.228 137.311 28.228C138.449 28.228 139.373 27.8827 140.083 27.192C140.792 26.52 141.147 25.4933 141.147 24.112V21.704C140.643 22.432 139.943 23.0387 139.047 23.524C138.169 24.0093 137.161 24.252 136.023 24.252C134.716 24.252 133.521 23.916 132.439 23.244C131.356 22.572 130.497 21.6293 129.863 20.416C129.247 19.184 128.939 17.7747 128.939 16.188C128.939 14.62 129.247 13.2293 129.863 12.016C130.497 10.8027 131.347 9.86933 132.411 9.216C133.493 8.56267 134.697 8.236 136.023 8.236ZM141.147 16.244C141.147 15.292 140.96 14.48 140.587 13.808C140.213 13.1173 139.709 12.5947 139.075 12.24C138.44 11.8667 137.759 11.68 137.031 11.68C136.303 11.68 135.631 11.8573 135.015 12.212C134.399 12.5667 133.895 13.0893 133.503 13.78C133.129 14.452 132.943 15.2547 132.943 16.188C132.943 17.1213 133.129 17.9427 133.503 18.652C133.895 19.3427 134.399 19.8747 135.015 20.248C135.649 20.6213 136.321 20.808 137.031 20.808C137.759 20.808 138.44 20.6307 139.075 20.276C139.709 19.9027 140.213 19.38 140.587 18.708C140.96 18.0173 141.147 17.196 141.147 16.244Z" fill="#FF5F26"/>
</svg>
